<mxfile host="app.diagrams.net" modified="2022-09-23T10:12:43.942Z" agent="5.0 (Macintosh; Intel Mac OS X 10_15_7) AppleWebKit/537.36 (KHTML, like Gecko) Chrome/105.0.0.0 Safari/537.36" etag="lu6ge-UrwP6Gw-09dHs4" version="20.3.6" type="github">
  <diagram name="Page-1" id="e7e014a7-5840-1c2e-5031-d8a46d1fe8dd">
    <mxGraphModel dx="1577" dy="803" grid="1" gridSize="10" guides="1" tooltips="1" connect="1" arrows="1" fold="1" page="1" pageScale="1" pageWidth="1169" pageHeight="826" background="none" math="0" shadow="0">
      <root>
        <mxCell id="0" />
        <mxCell id="1" parent="0" />
        <mxCell id="up6_apC2mIbX7ITLEmaO-42" value="ERP" style="swimlane;html=1;startSize=20;fontStyle=0;collapsible=0;horizontal=0;swimlaneLine=1;swimlaneFillColor=#ffffff;strokeWidth=2;" vertex="1" parent="1">
          <mxGeometry x="90" y="120" width="1170" height="280" as="geometry" />
        </mxCell>
        <mxCell id="up6_apC2mIbX7ITLEmaO-46" value="" style="edgeStyle=orthogonalEdgeStyle;rounded=0;orthogonalLoop=1;jettySize=auto;html=1;" edge="1" parent="up6_apC2mIbX7ITLEmaO-42" source="up6_apC2mIbX7ITLEmaO-44" target="up6_apC2mIbX7ITLEmaO-45">
          <mxGeometry relative="1" as="geometry" />
        </mxCell>
        <mxCell id="up6_apC2mIbX7ITLEmaO-44" value="" style="points=[[0.145,0.145,0],[0.5,0,0],[0.855,0.145,0],[1,0.5,0],[0.855,0.855,0],[0.5,1,0],[0.145,0.855,0],[0,0.5,0]];shape=mxgraph.bpmn.event;html=1;verticalLabelPosition=bottom;labelBackgroundColor=#ffffff;verticalAlign=top;align=center;perimeter=ellipsePerimeter;outlineConnect=0;aspect=fixed;outline=standard;symbol=general;" vertex="1" parent="up6_apC2mIbX7ITLEmaO-42">
          <mxGeometry x="40" y="110" width="50" height="50" as="geometry" />
        </mxCell>
        <mxCell id="up6_apC2mIbX7ITLEmaO-48" value="" style="edgeStyle=orthogonalEdgeStyle;rounded=0;orthogonalLoop=1;jettySize=auto;html=1;" edge="1" parent="up6_apC2mIbX7ITLEmaO-42" source="up6_apC2mIbX7ITLEmaO-45" target="up6_apC2mIbX7ITLEmaO-47">
          <mxGeometry relative="1" as="geometry" />
        </mxCell>
        <mxCell id="up6_apC2mIbX7ITLEmaO-45" value="Create purchase order in ERP" style="rounded=1;whiteSpace=wrap;html=1;verticalAlign=middle;fillColor=rgb(255, 255, 255);strokeColor=rgb(0, 0, 0);fontColor=rgb(0, 0, 0);labelBackgroundColor=#ffffff;" vertex="1" parent="up6_apC2mIbX7ITLEmaO-42">
          <mxGeometry x="135" y="105" width="120" height="60" as="geometry" />
        </mxCell>
        <mxCell id="up6_apC2mIbX7ITLEmaO-50" value="" style="edgeStyle=orthogonalEdgeStyle;rounded=0;orthogonalLoop=1;jettySize=auto;html=1;" edge="1" parent="up6_apC2mIbX7ITLEmaO-42" source="up6_apC2mIbX7ITLEmaO-47" target="up6_apC2mIbX7ITLEmaO-49">
          <mxGeometry relative="1" as="geometry" />
        </mxCell>
        <mxCell id="up6_apC2mIbX7ITLEmaO-47" value="Send PO to Suplier" style="rounded=1;whiteSpace=wrap;html=1;verticalAlign=middle;fillColor=rgb(255, 255, 255);strokeColor=rgb(0, 0, 0);fontColor=rgb(0, 0, 0);labelBackgroundColor=#ffffff;" vertex="1" parent="up6_apC2mIbX7ITLEmaO-42">
          <mxGeometry x="335" y="105" width="120" height="60" as="geometry" />
        </mxCell>
        <mxCell id="up6_apC2mIbX7ITLEmaO-52" value="" style="edgeStyle=orthogonalEdgeStyle;rounded=0;orthogonalLoop=1;jettySize=auto;html=1;" edge="1" parent="up6_apC2mIbX7ITLEmaO-42" source="up6_apC2mIbX7ITLEmaO-49" target="up6_apC2mIbX7ITLEmaO-51">
          <mxGeometry relative="1" as="geometry" />
        </mxCell>
        <mxCell id="up6_apC2mIbX7ITLEmaO-49" value="Send PO in WMS" style="rounded=1;whiteSpace=wrap;html=1;verticalAlign=middle;fillColor=rgb(255, 255, 255);strokeColor=rgb(0, 0, 0);fontColor=rgb(0, 0, 0);labelBackgroundColor=#ffffff;" vertex="1" parent="up6_apC2mIbX7ITLEmaO-42">
          <mxGeometry x="535" y="105" width="120" height="60" as="geometry" />
        </mxCell>
        <mxCell id="up6_apC2mIbX7ITLEmaO-54" value="" style="edgeStyle=orthogonalEdgeStyle;rounded=0;orthogonalLoop=1;jettySize=auto;html=1;" edge="1" parent="up6_apC2mIbX7ITLEmaO-42" source="up6_apC2mIbX7ITLEmaO-51" target="up6_apC2mIbX7ITLEmaO-53">
          <mxGeometry relative="1" as="geometry" />
        </mxCell>
        <mxCell id="up6_apC2mIbX7ITLEmaO-51" value="Accept PO in WMS" style="rounded=1;whiteSpace=wrap;html=1;verticalAlign=middle;fillColor=rgb(255, 255, 255);strokeColor=rgb(0, 0, 0);fontColor=rgb(0, 0, 0);labelBackgroundColor=#ffffff;" vertex="1" parent="up6_apC2mIbX7ITLEmaO-42">
          <mxGeometry x="735" y="105" width="120" height="60" as="geometry" />
        </mxCell>
        <mxCell id="up6_apC2mIbX7ITLEmaO-57" value="" style="edgeStyle=orthogonalEdgeStyle;rounded=0;orthogonalLoop=1;jettySize=auto;html=1;" edge="1" parent="up6_apC2mIbX7ITLEmaO-42" source="up6_apC2mIbX7ITLEmaO-53">
          <mxGeometry relative="1" as="geometry">
            <mxPoint x="1090" y="135" as="targetPoint" />
          </mxGeometry>
        </mxCell>
        <mxCell id="up6_apC2mIbX7ITLEmaO-53" value="Get acceptance fact from WMS" style="rounded=1;whiteSpace=wrap;html=1;verticalAlign=middle;fillColor=rgb(255, 255, 255);strokeColor=rgb(0, 0, 0);fontColor=rgb(0, 0, 0);labelBackgroundColor=#ffffff;" vertex="1" parent="up6_apC2mIbX7ITLEmaO-42">
          <mxGeometry x="935" y="105" width="120" height="60" as="geometry" />
        </mxCell>
        <mxCell id="up6_apC2mIbX7ITLEmaO-58" value="" style="points=[[0.145,0.145,0],[0.5,0,0],[0.855,0.145,0],[1,0.5,0],[0.855,0.855,0],[0.5,1,0],[0.145,0.855,0],[0,0.5,0]];shape=mxgraph.bpmn.event;html=1;verticalLabelPosition=bottom;labelBackgroundColor=#ffffff;verticalAlign=top;align=center;perimeter=ellipsePerimeter;outlineConnect=0;aspect=fixed;outline=end;symbol=terminate2;" vertex="1" parent="up6_apC2mIbX7ITLEmaO-42">
          <mxGeometry x="1090" y="110" width="50" height="50" as="geometry" />
        </mxCell>
      </root>
    </mxGraphModel>
  </diagram>
</mxfile>
